<svg width="60" height="62" viewBox="0 0 60 62" fill="none" xmlns="http://www.w3.org/2000/svg">
<path fill-rule="evenodd" clip-rule="evenodd" d="M25.8413 57.9605C38.9701 57.9605 49.6135 47.3168 49.6135 34.188C49.6135 21.0592 38.9701 10.4131 25.8413 10.4131C12.7126 10.4131 2.06885 21.0568 2.06885 34.188C2.06885 47.3196 12.7126 57.9605 25.8413 57.9605ZM25.8413 53.2991C36.3437 53.2991 44.8592 44.7839 44.8592 34.2812C44.8592 23.7789 36.3437 15.2634 25.8413 15.2634C15.339 15.2634 6.82347 23.7789 6.82347 34.2812C6.82347 44.7839 15.339 53.2991 25.8413 53.2991Z" fill="#E57E75"/>
<g filter="url(#filter0_f_4111_37994)">
<path d="M49.5401 32.2265C49.2314 28.6764 48.1939 26.4662 47.0767 24.618C41.8655 15.0497 33.6822 10.7678 26.3875 10.6174L25.4614 14.9392C36.4203 15.5636 45.064 24.7988 49.5401 32.2265Z" fill="black" fill-opacity="0.3"/>
</g>
<g filter="url(#filter1_f_4111_37994)">
<path d="M37.5007 54.8892C38.2725 54.4261 38.5812 54.2718 39.6616 53.5C37.2174 54.4042 34.0572 54.9453 30.4005 54.8892C23.8092 54.7881 14.348 49.6682 14.348 49.6682C14.348 49.6682 9.43653 46.7862 7.55659 43.4941L5.06085 44.8466C11.1666 56.472 25.6157 59.3654 37.5007 54.8892Z" fill="black" fill-opacity="0.3"/>
</g>
<path d="M37.5608 54.8734C36.6418 55.3955 35.6778 55.8616 34.6711 56.2691C22.4931 61.178 8.64261 55.2889 3.73086 43.111C-1.17811 30.9333 4.7113 17.0825 16.889 12.1708C25.1004 8.85962 39.3529 9.3826 47.0766 23.564C48.1938 25.4122 49.3857 29.4482 49.3857 30.9917C44.9095 23.564 37.3463 15.8653 26.3874 15.241C23.1275 15.1461 20.4725 15.8574 18.7029 16.667C8.96212 20.5958 4.24763 31.6764 8.17648 41.4196C9.71754 44.8833 11.7935 47.6125 14.5478 49.6314C18.8227 53.2484 24.1712 55.3689 29.7726 55.6619C32.4123 55.8002 35.036 55.5285 37.5584 54.8734H37.5608Z" fill="#78A5C7"/>
<g filter="url(#filter2_f_4111_37994)">
<path d="M44.2919 34.0787L46.2985 35.0048C48.7146 35.8042 49.3594 37.5063 48.659 39.9605C47.8511 42.7914 46.3353 46.2692 45.4215 47.8201C47.538 42.2464 45.0637 39.1724 45.0637 39.1724L43.4062 37.462L44.2919 34.0787Z" fill="black" fill-opacity="0.3"/>
</g>
<path d="M43.6763 36.6974L44.1878 34.5637L45.8045 34.9313L45.8523 34.9446C48.3136 35.5919 49.6231 36.3706 49.077 38.8636C48.1642 43.0311 47.2374 44.7067 46.1774 46.499C48.0552 40.2771 44.5499 37.7282 44.5499 37.7282L43.6787 36.6974H43.6763Z" fill="#78A5C7"/>
<g filter="url(#filter3_f_4111_37994)">
<path d="M44.259 32.8449C46.7785 32.935 47.328 34.9425 48.1511 37.0114C49.2044 39.6586 48.3282 42.3107 47.3794 44.2659C47.6193 43.7246 47.7245 41.7702 47.0707 40.4071C46.2726 38.7435 45.2518 38.0734 43.3662 37.4744L44.259 32.8449Z" fill="black" fill-opacity="0.3"/>
</g>
<g filter="url(#filter4_f_4111_37994)">
<path d="M48.3055 26.3611C45.1002 20.7745 32.7232 15.1254 25.6159 15.0936L26.3877 11.5434C36.0619 11.5868 44.707 18.3441 48.3055 26.3611Z" fill="black" fill-opacity="0.3"/>
</g>
<g filter="url(#filter5_f_4111_37994)">
<path d="M30.4007 57.54C28.7029 57.8487 27.7763 57.9912 26.0789 58.0031C17.6252 58.0624 11.4 53.6477 7.20477 47.4017L7.86546 42.1049C10.4351 46.8319 17.4038 53.1113 22.4382 55.3877C24.8103 56.4605 27.8404 57.2092 30.4007 57.54Z" fill="black" fill-opacity="0.3"/>
</g>
<g filter="url(#filter6_ii_4111_37994)">
<path d="M49.3857 37.4744C49.3619 34.9227 47.218 32.9266 44.6768 32.8439H42.0528H40.0463C35.5741 32.7294 33.7056 34.7847 31.6549 38.988C31.519 39.2702 31.3218 39.6804 31.0927 40.1679L27.0682 21.2111L21.0565 33.1227L16.0864 17.9055C18.9203 16.2277 22.2284 15.2606 25.763 15.2606C32.9307 15.2606 44.3302 18.8165 47.5879 24.671C43.9227 16.2648 35.5195 10.413 25.763 10.413C21.7091 10.413 17.8948 11.4305 14.5574 13.2179L13.5054 10L13.4174 13.8677C6.56671 18.0389 1.91934 25.1003 1.92163 34.2331C1.92493 47.4036 10.8219 56.4805 23.1461 57.8487C25.6326 58.1248 27.6222 58.0031 29.5504 57.6944C26.9669 57.3588 23.8478 56.6846 21.4508 55.5687C16.3634 53.2006 12.1974 49.2347 9.58458 44.2804C8.36737 42.3146 7.50701 40.104 7.07267 37.7467C8.40719 37.7359 9.71762 37.6081 10.6366 37.2327C13.1056 36.2285 14.7359 34.3001 15.812 32.2117L20.127 45.4204L25.2462 35.2777L29.4387 55.0334L32.4035 48.5581C32.43 48.4994 35.1361 42.589 35.8872 41.0495C37.6557 37.4272 38.19 37.4238 39.8919 37.4744H42.9789C43.4929 37.4744 43.9118 37.5423 44.4719 37.7334C46.5358 38.4377 47.7509 40.1441 47.7509 42.2534C47.7509 42.9113 47.6187 43.696 47.3791 44.2659C48.1924 42.5654 48.5194 41.8824 48.9262 40.2527C49.1924 39.1857 49.3053 38.2786 49.3857 37.4744ZM8.86005 32.8723C8.5458 32.9976 7.77064 33.0507 6.78774 33.0375C7.12329 27.8167 9.56575 23.1741 13.2736 19.9405L13.1856 23.7604C13.1856 23.8348 12.9006 31.2288 8.85727 32.8751L8.86005 32.8723Z" fill="#346889"/>
</g>
<defs>
<filter id="filter0_f_4111_37994" x="15.4614" y="0.617401" width="44.0786" height="41.6091" filterUnits="userSpaceOnUse" color-interpolation-filters="sRGB">
<feFlood flood-opacity="0" result="BackgroundImageFix"/>
<feBlend mode="normal" in="SourceGraphic" in2="BackgroundImageFix" result="shape"/>
<feGaussianBlur stdDeviation="5" result="effect1_foregroundBlur_4111_37994"/>
</filter>
<filter id="filter1_f_4111_37994" x="0.060791" y="38.4941" width="44.6008" height="23.3975" filterUnits="userSpaceOnUse" color-interpolation-filters="sRGB">
<feFlood flood-opacity="0" result="BackgroundImageFix"/>
<feBlend mode="normal" in="SourceGraphic" in2="BackgroundImageFix" result="shape"/>
<feGaussianBlur stdDeviation="2.5" result="effect1_foregroundBlur_4111_37994"/>
</filter>
<filter id="filter2_f_4111_37994" x="42.4062" y="33.0787" width="7.51929" height="15.7414" filterUnits="userSpaceOnUse" color-interpolation-filters="sRGB">
<feFlood flood-opacity="0" result="BackgroundImageFix"/>
<feBlend mode="normal" in="SourceGraphic" in2="BackgroundImageFix" result="shape"/>
<feGaussianBlur stdDeviation="0.5" result="effect1_foregroundBlur_4111_37994"/>
</filter>
<filter id="filter3_f_4111_37994" x="42.3662" y="31.8449" width="7.26416" height="13.4209" filterUnits="userSpaceOnUse" color-interpolation-filters="sRGB">
<feFlood flood-opacity="0" result="BackgroundImageFix"/>
<feBlend mode="normal" in="SourceGraphic" in2="BackgroundImageFix" result="shape"/>
<feGaussianBlur stdDeviation="0.5" result="effect1_foregroundBlur_4111_37994"/>
</filter>
<filter id="filter4_f_4111_37994" x="23.616" y="9.54343" width="26.6895" height="18.8177" filterUnits="userSpaceOnUse" color-interpolation-filters="sRGB">
<feFlood flood-opacity="0" result="BackgroundImageFix"/>
<feBlend mode="normal" in="SourceGraphic" in2="BackgroundImageFix" result="shape"/>
<feGaussianBlur stdDeviation="1" result="effect1_foregroundBlur_4111_37994"/>
</filter>
<filter id="filter5_f_4111_37994" x="5.20483" y="40.1049" width="27.1958" height="19.8987" filterUnits="userSpaceOnUse" color-interpolation-filters="sRGB">
<feFlood flood-opacity="0" result="BackgroundImageFix"/>
<feBlend mode="normal" in="SourceGraphic" in2="BackgroundImageFix" result="shape"/>
<feGaussianBlur stdDeviation="1" result="effect1_foregroundBlur_4111_37994"/>
</filter>
<filter id="filter6_ii_4111_37994" x="1.42163" y="9.5" width="48.4641" height="49.0027" filterUnits="userSpaceOnUse" color-interpolation-filters="sRGB">
<feFlood flood-opacity="0" result="BackgroundImageFix"/>
<feBlend mode="normal" in="SourceGraphic" in2="BackgroundImageFix" result="shape"/>
<feColorMatrix in="SourceAlpha" type="matrix" values="0 0 0 0 0 0 0 0 0 0 0 0 0 0 0 0 0 0 127 0" result="hardAlpha"/>
<feOffset dx="-0.5" dy="-0.5"/>
<feGaussianBlur stdDeviation="0.25"/>
<feComposite in2="hardAlpha" operator="arithmetic" k2="-1" k3="1"/>
<feColorMatrix type="matrix" values="0 0 0 0 0 0 0 0 0 0 0 0 0 0 0 0 0 0 0.25 0"/>
<feBlend mode="normal" in2="shape" result="effect1_innerShadow_4111_37994"/>
<feColorMatrix in="SourceAlpha" type="matrix" values="0 0 0 0 0 0 0 0 0 0 0 0 0 0 0 0 0 0 127 0" result="hardAlpha"/>
<feOffset dx="0.5" dy="0.5"/>
<feGaussianBlur stdDeviation="0.25"/>
<feComposite in2="hardAlpha" operator="arithmetic" k2="-1" k3="1"/>
<feColorMatrix type="matrix" values="0 0 0 0 0 0 0 0 0 0 0 0 0 0 0 0 0 0 0.3 0"/>
<feBlend mode="normal" in2="effect1_innerShadow_4111_37994" result="effect2_innerShadow_4111_37994"/>
</filter>
</defs>
</svg>
