<svg width="95" height="26" viewBox="0 0 95 26" fill="none" xmlns="http://www.w3.org/2000/svg">
<path d="M65.1397 21.8136V23.334H60.6146V16.9814H65.0612V18.5018H62.3573V19.3974H64.6679V20.8089H62.3573V21.8136H65.1397Z" fill="#222221"/>
<path d="M54.8641 18.5016H54.1651V21.8134H54.8641C55.3098 21.8134 55.6599 21.659 55.9146 21.3502C56.1693 21.0415 56.2968 20.6411 56.2968 20.1488C56.2968 19.6507 56.1686 19.2515 55.9125 18.9516C55.6562 18.6519 55.3067 18.5016 54.8641 18.5016ZM52.4225 23.3337V16.9812H54.8641C55.3768 16.9812 55.8389 17.0638 56.2507 17.2282C56.6627 17.3926 56.9993 17.6199 57.2601 17.9095C57.5204 18.1995 57.7201 18.5345 57.8582 18.9147C57.9964 19.2946 58.0656 19.706 58.0656 20.1488C58.0656 21.11 57.7737 21.8811 57.19 22.4622C56.6061 23.0434 55.8307 23.3337 54.8641 23.3337H52.4225Z" fill="#222221"/>
<path d="M47.3009 16.7102L46.2264 16.4263L46.6718 15.155H48.1831L47.3009 16.7102ZM46.7638 23.386C46.3675 23.386 46.0089 23.3309 45.6871 23.2201C45.3654 23.1093 45.0945 22.9581 44.8746 22.7656C44.6547 22.5734 44.4706 22.3434 44.3222 22.0754C44.1735 21.8075 44.0658 21.5212 43.9988 21.2168C43.9318 20.9124 43.8984 20.5885 43.8984 20.2448V16.981H45.6455V20.2448C45.6455 20.4631 45.6667 20.6656 45.7088 20.8519C45.7509 21.0385 45.8151 21.2067 45.9012 21.3568C45.9868 21.5068 46.1034 21.6247 46.2504 21.7106C46.3974 21.7964 46.5686 21.8395 46.7638 21.8395C46.9618 21.8395 47.1349 21.7957 47.2835 21.7085C47.4319 21.6209 47.5493 21.5007 47.6351 21.3481C47.721 21.1949 47.7852 21.0262 47.8273 20.8413C47.8694 20.6562 47.8905 20.4574 47.8905 20.2448V16.981H49.6332V20.2448C49.6332 20.6962 49.5751 21.1098 49.4587 21.4857C49.3421 21.8611 49.1694 22.1919 48.9411 22.4775C48.7125 22.7628 48.4126 22.9856 48.0411 23.1456C47.6699 23.306 47.2443 23.386 46.7638 23.386Z" fill="#222221"/>
<path d="M39.4801 20.9265L38.9166 18.6895L38.327 20.9265H39.4801ZM37.9425 16.9812H39.8905L41.913 23.3337H40.1437L39.7595 22.0886H38.0648L37.6892 23.3337H35.9115L37.9425 16.9812Z" fill="#222221"/>
<path d="M33.1788 19.0566C33.1527 19.042 33.1177 19.0217 33.0742 18.9952C33.0302 18.9691 32.9415 18.9227 32.8077 18.8557C32.6737 18.7884 32.5427 18.7296 32.4145 18.6788C32.2863 18.6277 32.137 18.5811 31.967 18.5388C31.7965 18.4964 31.6398 18.4753 31.4973 18.4753C31.1565 18.4753 30.9863 18.5804 30.9863 18.79C30.9863 18.8366 30.9943 18.8787 31.0103 18.9166C31.0262 18.9545 31.0547 18.9895 31.0954 19.0217C31.1361 19.0535 31.1761 19.0813 31.2153 19.1046C31.2548 19.1281 31.3153 19.1542 31.3969 19.1831C31.4785 19.2123 31.5481 19.2356 31.6064 19.253C31.6648 19.2706 31.7534 19.2975 31.8729 19.3339C31.9921 19.3704 32.0897 19.4003 32.1655 19.4235C32.4216 19.5024 32.6393 19.5795 32.8185 19.655C32.9975 19.7308 33.1716 19.8232 33.3404 19.9326C33.5093 20.0415 33.6445 20.1617 33.7466 20.293C33.8486 20.4238 33.9293 20.5819 33.989 20.767C34.0488 20.9522 34.0786 21.1608 34.0786 21.394C34.0786 21.6883 34.0321 21.9531 33.9387 22.1891C33.8456 22.425 33.7228 22.6182 33.5697 22.7678C33.4171 22.9181 33.2341 23.0426 33.0215 23.1414C32.8091 23.2406 32.5914 23.3105 32.3687 23.3512C32.1457 23.3921 31.9105 23.4126 31.6633 23.4126C31.2059 23.4126 30.7269 23.3448 30.2262 23.2091C29.7252 23.0738 29.284 22.8939 28.9026 22.6697L29.6542 21.1404C29.6831 21.1608 29.7233 21.1865 29.7741 21.2171C29.8249 21.2474 29.9301 21.3029 30.0886 21.3831C30.2473 21.4631 30.4037 21.5337 30.558 21.5949C30.7125 21.656 30.8953 21.7122 31.1062 21.7631C31.3174 21.8141 31.5133 21.8395 31.6939 21.8395C32.0316 21.8395 32.2005 21.7464 32.2005 21.56C32.2005 21.4902 32.1786 21.4281 32.1351 21.3744C32.0914 21.3203 32.0185 21.2709 31.9166 21.2258C31.8146 21.1806 31.7163 21.1427 31.6217 21.1121C31.5272 21.0816 31.3931 21.0409 31.22 20.9898C31.0467 20.9388 30.9032 20.8943 30.7897 20.8564C30.2189 20.6642 29.8075 20.4337 29.5559 20.1641C29.3038 19.8947 29.178 19.5313 29.178 19.074C29.178 18.7331 29.2429 18.4245 29.3722 18.1478C29.5018 17.8712 29.6765 17.6453 29.8964 17.4705C30.1163 17.2958 30.3675 17.1617 30.65 17.0687C30.9322 16.9754 31.2323 16.9288 31.5495 16.9288C32.228 16.9288 33.0215 17.1574 33.93 17.6147L33.1788 19.0566Z" fill="#222221"/>
<path d="M88.5928 8.30623L87.5705 5.52328L86.5181 8.30623H88.5928ZM87.0987 4.4221H88.0467L90.5147 10.7747H89.4576L88.7892 9.0489H86.3389L85.6752 10.7747H84.6093L87.0987 4.4221Z" fill="#222221"/>
<path d="M79.5573 5.30921H78.3038V9.88802H79.5573C79.994 9.88802 80.3705 9.78663 80.6864 9.58432C81.0025 9.38177 81.2388 9.10865 81.3962 8.76496C81.5533 8.42127 81.632 8.02958 81.632 7.58968C81.632 6.91123 81.4479 6.36146 81.0796 5.94061C80.7111 5.51975 80.2038 5.30921 79.5573 5.30921ZM77.3036 10.7747V4.4221H79.5573C80.0552 4.4221 80.5029 4.50467 80.9004 4.66911C81.2978 4.83378 81.6233 5.06079 81.8766 5.35061C82.1299 5.64043 82.323 5.97542 82.4554 6.35558C82.5878 6.7355 82.6541 7.14694 82.6541 7.58968C82.6541 8.55089 82.3724 9.32226 81.8089 9.90308C81.2456 10.4844 80.4949 10.7747 79.5573 10.7747H77.3036Z" fill="#222221"/>
<path d="M67.4402 9.91383C67.7487 9.91383 68.0328 9.84679 68.2918 9.71293C68.5512 9.57884 68.7635 9.40194 68.9296 9.18199C69.0956 8.96203 69.2245 8.71526 69.3162 8.44143C69.4077 8.16761 69.4538 7.88649 69.4538 7.59808C69.4538 7.29838 69.4049 7.00903 69.3073 6.73097C69.2097 6.45291 69.0758 6.20661 68.9053 5.99253C68.7353 5.77846 68.5227 5.60814 68.268 5.48135C68.0131 5.35455 67.7372 5.2915 67.4402 5.2915C67.1316 5.2915 66.8468 5.35761 66.5862 5.49005C66.3256 5.62273 66.1109 5.79822 65.9421 6.01676C65.773 6.23507 65.642 6.48114 65.5489 6.75496C65.4557 7.02879 65.4089 7.30991 65.4089 7.59808C65.4089 8.00011 65.4898 8.3758 65.6516 8.72538C65.8132 9.07495 66.0512 9.3603 66.3656 9.58167C66.6803 9.80303 67.0382 9.91383 67.4402 9.91383ZM64.3913 7.59808C64.3913 7.17864 64.4691 6.77308 64.6251 6.38139C64.7808 5.98971 64.9927 5.64672 65.2605 5.35243C65.5284 5.05838 65.8532 4.82242 66.2346 4.64481C66.6161 4.4672 67.0208 4.37828 67.4489 4.37828C67.8884 4.37828 68.3005 4.47144 68.685 4.65775C69.0695 4.8443 69.3903 5.08966 69.648 5.39407C69.9056 5.69848 70.109 6.04358 70.2574 6.42938C70.4058 6.81542 70.4801 7.20781 70.4801 7.60678C70.4801 8.02646 70.4023 8.43108 70.2466 8.82136C70.0906 9.21186 69.8802 9.55414 69.6153 9.8482C69.3503 10.1425 69.0272 10.3777 68.6457 10.5539C68.2642 10.7301 67.8595 10.8181 67.4315 10.8181C67.0761 10.8181 66.7384 10.7593 66.4181 10.6412C66.0978 10.5234 65.816 10.3608 65.5731 10.154C65.3297 9.94747 65.1187 9.70846 64.9395 9.4377C64.7603 9.16669 64.6241 8.87311 64.5312 8.55717C64.4379 8.24124 64.3913 7.92154 64.3913 7.59808Z" fill="#222221"/>
<path d="M60.5718 4.42185H61.572V10.7744H60.5718V4.42185Z" fill="#222221"/>
<path d="M53.873 7.67694H55.6289C55.9057 7.67694 56.134 7.5612 56.3147 7.32949C56.495 7.098 56.5853 6.81783 56.5853 6.48848C56.5853 6.16502 56.4835 5.8879 56.2796 5.65619C56.0757 5.42471 55.8398 5.30897 55.5722 5.30897H53.873V7.67694ZM52.8728 10.7744V4.42186H55.6376C55.9144 4.42186 56.1771 4.48161 56.4259 4.60111C56.675 4.72062 56.884 4.878 57.0529 5.07301C57.2215 5.26803 57.3558 5.4894 57.4546 5.73711C57.5536 5.98459 57.603 6.23513 57.603 6.48848C57.603 6.91945 57.4896 7.30925 57.2624 7.65718C57.0352 8.00534 56.7354 8.23918 56.3626 8.35821L57.8563 10.7744H56.7295L55.3492 8.56382H53.873V10.7744H52.8728Z" fill="#222221"/>
<path d="M48.271 3.76646L47.6245 3.57003L48.1355 2.58694H49.0746L48.271 3.76646ZM50.0487 9.88778V10.7744H45.6939V4.42186H49.9702V5.30897H46.6941V7.1133H49.529V7.94771H46.6941V9.88778H50.0487Z" fill="#222221"/>
<path d="M43.0574 5.30897H40.9476V10.7744H39.9345V5.30897H37.8162V4.42186H43.0574V5.30897Z" fill="#222221"/>
<path d="M34.9002 5.91601C34.7633 5.76452 34.5305 5.6189 34.2015 5.4794C33.8724 5.33943 33.5333 5.26956 33.1836 5.26956C32.7702 5.26956 32.4609 5.34578 32.2556 5.49892C32.0503 5.65183 31.9475 5.86802 31.9475 6.14749C31.9475 6.23501 31.9593 6.31358 31.9825 6.38345C32.0058 6.45355 32.0357 6.51542 32.0721 6.56905C32.1086 6.62316 32.1629 6.67491 32.2358 6.72455C32.3085 6.77372 32.3807 6.81606 32.4522 6.85111C32.5234 6.88593 32.621 6.9231 32.7448 6.96238C32.8685 7.00167 32.9844 7.03531 33.0921 7.06307C33.1998 7.09059 33.3409 7.12635 33.5157 7.16987C33.7953 7.23691 34.0338 7.30302 34.232 7.36889C34.4301 7.43429 34.6208 7.51733 34.8042 7.61778C34.9877 7.71823 35.1346 7.83044 35.2454 7.95418C35.3557 8.07792 35.4441 8.22871 35.5095 8.40655C35.5751 8.58416 35.6078 8.78647 35.6078 9.01372C35.6078 9.26708 35.5678 9.49597 35.4877 9.69969C35.4075 9.90342 35.2976 10.0754 35.1579 10.2151C35.0182 10.3551 34.8491 10.4722 34.6511 10.567C34.4533 10.6616 34.2407 10.7301 34.0135 10.7724C33.7866 10.8143 33.542 10.8357 33.2798 10.8357C32.7965 10.8357 32.329 10.7621 31.8776 10.615C31.4263 10.468 31.0202 10.256 30.6592 9.97917L31.1178 9.1184C31.3012 9.30801 31.6004 9.49056 32.0152 9.66676C32.4303 9.84296 32.8574 9.93118 33.2974 9.93118C33.6932 9.93118 33.9983 9.86131 34.2123 9.72157C34.4263 9.5816 34.5333 9.38094 34.5333 9.1184C34.5333 9.01372 34.5173 8.91915 34.4853 8.83446C34.4533 8.75025 34.3978 8.67379 34.3193 8.60533C34.2407 8.53688 34.1601 8.47783 34.0768 8.42843C33.9938 8.37879 33.8762 8.32775 33.7231 8.27529C33.5702 8.22306 33.4305 8.17931 33.3038 8.14425C33.1772 8.1092 33.006 8.06427 32.7906 8.00875C32.4557 7.92148 32.1791 7.83256 31.9607 7.74246C31.7422 7.65212 31.5493 7.54132 31.3819 7.41029C31.2144 7.27926 31.0931 7.12423 31.0171 6.94498C30.9416 6.76572 30.9038 6.554 30.9038 6.30934C30.9038 6.00352 30.9628 5.72758 31.0806 5.48128C31.1987 5.23521 31.3607 5.03196 31.5677 4.872C31.7744 4.71179 32.0176 4.58923 32.2972 4.50501C32.5766 4.42056 32.8809 4.37822 33.2099 4.37822C33.9903 4.37822 34.7052 4.61723 35.3545 5.09477L34.9002 5.91601Z" fill="#222221"/>
<path d="M26.922 4.42185H27.9222V10.7744H26.922V4.42185Z" fill="#222221"/>
<path d="M19.2756 6.28336V10.7747H18.2754V4.4221H19.0964L22.6956 9.01385V4.4308H23.7045V10.7747H22.8268L19.2756 6.28336Z" fill="#222221"/>
<path d="M14.0537 4.42185H15.0539V10.7744H14.0537V4.42185Z" fill="#222221"/>
<path d="M9.82274 10.7744V6.2483L7.9533 9.68217H7.3637L5.48556 6.2483V10.7744H4.48534V4.42186H5.55964L7.66073 8.30599L9.76159 4.42186H10.8361V10.7744H9.82274Z" fill="#222221"/>
</svg>
