<svg width="20" height="20" viewBox="0 0 20 20" fill="none" xmlns="http://www.w3.org/2000/svg">
<rect width="20" height="20" rx="4" fill="#249689"/>
<path d="M3.47705 17.348V2.65198H9.13106C10.407 2.65198 11.5437 2.77664 12.5411 3.02598C13.553 3.27531 14.345 3.72998 14.917 4.38998C15.5037 5.04998 15.797 5.98865 15.797 7.20598C15.797 7.76331 15.6944 8.32065 15.489 8.87798C15.2837 9.42065 14.9244 9.91931 14.411 10.374C13.9124 10.8286 13.1937 11.1806 12.255 11.43L16.523 17.348H12.497L8.51505 11.804H6.95305V17.348H3.47705ZM6.95305 8.89998H9.24105C10.0624 8.89998 10.7444 8.79731 11.287 8.59198C11.8444 8.37198 12.123 7.92465 12.123 7.24998C12.123 6.56065 11.8444 6.11331 11.287 5.90798C10.7444 5.68798 10.0624 5.57798 9.24105 5.57798H6.95305V8.89998Z" fill="#14181B"/>
</svg>
