<svg width="61" height="26" viewBox="0 0 61 26" fill="none" xmlns="http://www.w3.org/2000/svg">
<g clip-path="url(#clip0_3883_36341)">
<path d="M38.6349 6.40894H34.2803V20.8972H38.6349V6.40894Z" fill="url(#paint0_linear_3883_36341)"/>
<path fill-rule="evenodd" clip-rule="evenodd" d="M3.68366 23.0234H2.75809V23.3411H3.63958C3.78062 23.3411 3.86877 23.3675 3.92166 23.4116C3.97455 23.4646 3.99218 23.5528 3.99218 23.694V23.8969C3.99218 24.0293 3.96574 24.1264 3.92166 24.1793C3.87759 24.2322 3.78062 24.2499 3.63958 24.2499H2.7669C2.62587 24.2499 2.53772 24.2234 2.48483 24.1793C2.43194 24.1264 2.41431 24.0381 2.41431 23.8969V23.8528L2.7052 23.7911V23.9675H3.70129V23.6234H2.81979C2.67875 23.6234 2.59061 23.5969 2.53772 23.5528C2.49364 23.4999 2.4672 23.4116 2.4672 23.2705V23.1028C2.4672 22.9616 2.49364 22.8734 2.53772 22.8205C2.59061 22.7675 2.67875 22.7499 2.81979 22.7499H3.62195C3.75418 22.7499 3.85114 22.7764 3.89522 22.8205C3.94811 22.8646 3.97455 22.9528 3.97455 23.0764V23.1116L3.68366 23.1822V23.0234ZM4.82078 24.0205H5.75517V23.2528H4.82078V24.0205ZM4.53871 23.3234C4.53871 23.2087 4.55634 23.1381 4.60041 23.094C4.64449 23.0587 4.72382 23.0322 4.83841 23.0322H5.73754C5.86095 23.0322 5.94028 23.0499 5.97554 23.094C6.01962 23.1381 6.03725 23.2087 6.03725 23.3234V23.9675C6.03725 24.0822 6.01962 24.1528 5.97554 24.1969C5.93147 24.2411 5.85213 24.2587 5.73754 24.2587H4.84723C4.73263 24.2587 4.6533 24.2411 4.60923 24.1969C4.56515 24.1528 4.54752 24.0822 4.54752 23.9675V23.3234H4.53871ZM7.5446 23.2616H6.78651V24.0293H7.5446V23.7646L7.82668 23.8264V23.9675C7.82668 24.0822 7.80905 24.1528 7.76497 24.1969C7.7209 24.2411 7.64156 24.2587 7.52697 24.2587H6.80414C6.68955 24.2587 6.61022 24.2411 6.56614 24.1969C6.52207 24.1528 6.50444 24.0822 6.50444 23.9675V23.3234C6.50444 23.2087 6.52207 23.1381 6.56614 23.094C6.61022 23.0587 6.68955 23.0322 6.80414 23.0322H7.52697C7.65038 23.0322 7.72971 23.0499 7.76497 23.094C7.80905 23.1381 7.82668 23.2087 7.82668 23.3234V23.4381L7.5446 23.4822V23.2616ZM8.29387 24.2587V23.0322H8.57595V24.2587H8.29387ZM9.09603 24.2587V23.0322H10.3389V23.244H9.37811V23.5087H9.93345V23.7205H9.37811V24.0205H10.3477V24.2499H9.09603V24.2587ZM11.0441 24.0293H11.4055C11.6083 24.0293 11.7405 24.0028 11.8198 23.9411C11.8992 23.8793 11.9433 23.7734 11.9433 23.6322C11.9433 23.5087 11.908 23.4116 11.8463 23.3499C11.7758 23.2881 11.6788 23.2528 11.5378 23.2528H11.0441V24.0293ZM10.7621 24.2587V23.0322H11.5466C11.767 23.0322 11.9433 23.0852 12.0578 23.1911C12.1813 23.2969 12.2341 23.4469 12.2341 23.6411C12.2341 23.844 12.1724 24.0028 12.0402 24.1087C11.9168 24.2146 11.7229 24.2587 11.4672 24.2587H10.7621ZM12.4369 24.2587L13.1245 23.0322H13.3977L14.0941 24.2587H13.7768L13.6269 23.9852H12.86L12.7102 24.2587H12.4369ZM12.9834 23.7646H13.5123L13.239 23.2528L12.9834 23.7646ZM14.6671 24.0293H15.0285C15.2312 24.0293 15.3634 24.0028 15.4428 23.9411C15.5221 23.8793 15.5574 23.7734 15.5574 23.6322C15.5574 23.5087 15.5221 23.4116 15.4604 23.3499C15.3987 23.2881 15.2929 23.2528 15.1607 23.2528H14.6583V24.0293H14.6671ZM14.385 24.2587V23.0322H15.1695C15.3899 23.0322 15.5662 23.0852 15.6808 23.1911C15.8042 23.2969 15.8571 23.4469 15.8571 23.6411C15.8571 23.844 15.7954 24.0028 15.6632 24.1087C15.5397 24.2146 15.3458 24.2587 15.0902 24.2587H14.385ZM16.289 24.2587V23.0322H17.5319V23.244H16.5711V23.5087H17.1264V23.7205H16.5711V24.0205H17.5407V24.2499H16.289V24.2587ZM20.194 23.0058H19.4448V23.3587H20.194C20.2469 23.3587 20.291 23.3499 20.3086 23.3322C20.3351 23.3146 20.3439 23.2881 20.3439 23.244V23.1028C20.3439 23.0675 20.3351 23.0411 20.3086 23.0234C20.291 23.0146 20.2469 23.0058 20.194 23.0058ZM20.194 23.6058H19.4448V23.9852H20.194C20.2557 23.9852 20.2998 23.9764 20.3174 23.9587C20.3439 23.9411 20.3527 23.9058 20.3527 23.8528V23.7381C20.3527 23.6852 20.3439 23.6499 20.3174 23.6322C20.2998 23.6146 20.2557 23.6058 20.194 23.6058ZM19.1186 24.2587V22.7587H20.3351C20.4497 22.7587 20.529 22.7852 20.5731 22.8293C20.626 22.8734 20.6436 22.9528 20.6436 23.0499V23.2352C20.6436 23.3058 20.626 23.3675 20.5819 23.4116C20.5378 23.4558 20.4761 23.4822 20.3968 23.4911C20.4761 23.4999 20.5378 23.5352 20.5819 23.5793C20.626 23.6322 20.6524 23.694 20.6524 23.7734V23.9675C20.6524 24.0646 20.6171 24.144 20.5466 24.1881C20.4761 24.2411 20.3703 24.2587 20.2381 24.2587H19.1186ZM22.1157 23.244H21.4722V23.5793H22.1157C22.1686 23.5793 22.195 23.5705 22.2127 23.5528C22.2303 23.5352 22.2391 23.5087 22.2391 23.4734V23.3322C22.2391 23.2969 22.2303 23.2705 22.2127 23.2528C22.195 23.2528 22.1686 23.244 22.1157 23.244ZM21.1901 24.2587V23.0322H22.2303C22.3272 23.0322 22.3978 23.0499 22.4418 23.0852C22.4859 23.1205 22.5035 23.1822 22.5035 23.2705V23.5616C22.5035 23.6411 22.4771 23.7028 22.4418 23.7469C22.3978 23.7822 22.3272 23.7999 22.2303 23.7999H22.0716L22.627 24.2675H22.2215L21.7366 23.7999H21.4722V24.2675H21.1901V24.2587ZM22.6975 24.2587L23.385 23.0322H23.6583L24.3547 24.2587H24.0373L23.8875 23.9852H23.1206L22.9707 24.2587H22.6975ZM23.244 23.7646H23.7729L23.4996 23.2528L23.244 23.7646ZM25.721 23.2528H24.9188V23.5087H25.6769C25.7915 23.5087 25.8797 23.5264 25.9149 23.5705C25.959 23.6146 25.9766 23.6852 25.9766 23.7999V23.9675C25.9766 24.0822 25.959 24.1528 25.9149 24.1969C25.8708 24.2411 25.7915 24.2587 25.6769 24.2587H24.9188C24.7954 24.2587 24.7161 24.2411 24.672 24.1969C24.6279 24.1528 24.6103 24.0822 24.6103 23.9675V23.9322L24.8659 23.8793V24.0205H25.721V23.7381H24.9717C24.8571 23.7381 24.769 23.7205 24.7337 23.6764C24.6896 23.6322 24.672 23.5616 24.672 23.4469V23.3234C24.672 23.2087 24.6896 23.1381 24.7337 23.094C24.7778 23.0499 24.8571 23.0322 24.9717 23.0322H25.6593C25.7739 23.0322 25.8532 23.0499 25.8973 23.094C25.9414 23.1293 25.959 23.1999 25.959 23.2969V23.3234L25.7122 23.3764V23.2528H25.721ZM26.4615 24.2587V23.0322H26.7435V24.2587H26.4615ZM27.2636 24.2587V23.0322H27.5457V24.0293H28.4536V24.2587H27.2636ZM28.7798 24.2587V23.0322H30.0227V23.244H29.0619V23.5087H29.6172V23.7205H29.0619V24.0205H30.0315V24.2499H28.7798V24.2587ZM30.4458 24.2587V23.0322H30.7279V24.2587H30.4458ZM32.1647 23.244H31.5212V23.5793H32.1647C32.2176 23.5793 32.244 23.5705 32.2617 23.5528C32.2793 23.5352 32.2881 23.5087 32.2881 23.4734V23.3322C32.2881 23.2969 32.2793 23.2705 32.2617 23.2528C32.244 23.2528 32.2088 23.244 32.1647 23.244ZM31.2391 24.2587V23.0322H32.2793C32.3763 23.0322 32.4468 23.0499 32.4909 23.0852C32.5349 23.1205 32.5526 23.1822 32.5526 23.2705V23.5616C32.5526 23.6411 32.5349 23.7028 32.4909 23.7469C32.4468 23.7822 32.3763 23.7999 32.2793 23.7999H32.1206L32.676 24.2675H32.2705L31.7857 23.7999H31.5212V24.2675H31.2391V24.2587ZM32.7465 24.2587L33.4341 23.0322H33.7073L34.4037 24.2587H34.0864L33.9365 23.9852H33.1696L33.0198 24.2587H32.7465ZM33.293 23.7646H33.8219L33.5487 23.2528L33.293 23.7646ZM36.0433 24.0293H36.4047C36.6074 24.0293 36.7397 24.0028 36.819 23.9411C36.8983 23.8793 36.9336 23.7734 36.9336 23.6322C36.9336 23.5087 36.8983 23.4116 36.8366 23.3499C36.7749 23.2881 36.6691 23.2528 36.5369 23.2528H36.0433V24.0293ZM35.7524 24.2587V23.0322H36.5369C36.7573 23.0322 36.9336 23.0852 37.057 23.1911C37.1804 23.2969 37.2333 23.4469 37.2333 23.6411C37.2333 23.844 37.1716 24.0028 37.0394 24.1087C36.916 24.2146 36.722 24.2587 36.4664 24.2587H35.7524ZM37.6564 24.2587V23.0322H38.8993V23.244H37.9385V23.5087H38.4938V23.7205H37.9385V24.0205H38.9081V24.2499H37.6564V24.2587ZM40.486 24.2587V22.7587H40.8122V24.2587H40.486ZM41.438 24.2587V23.0322H41.6672L42.2314 23.7646L42.7955 23.0322H43.0247V24.2587H42.7603V23.4116L42.2402 24.1087H42.1873L41.6584 23.4293V24.2499H41.438V24.2587ZM43.8269 23.0322V24.0293H44.6379V23.0322H44.9199V23.9675C44.9199 24.0822 44.9023 24.1528 44.8582 24.1969C44.8141 24.2411 44.7348 24.2587 44.6202 24.2587H43.8533C43.7387 24.2587 43.6594 24.2411 43.6153 24.1969C43.5712 24.1528 43.5536 24.0822 43.5536 23.9675V23.0322H43.8269ZM45.4312 24.2587V23.0322H45.6251L46.6124 23.844V23.0322H46.868V24.2587H46.6741L45.6956 23.4293V24.2587H45.4312ZM47.3793 24.2587V23.0322H47.6614V24.2587H47.3793ZM48.1109 24.2587V24.1264L48.9572 23.2528H48.1903V23.0322H49.4244V23.1558L48.5605 24.0381H49.4244V24.2675H48.1109V24.2587ZM49.6888 24.2587L50.3764 23.0322H50.6496L51.346 24.2587H51.0287L50.8788 23.9852H50.1119L49.9621 24.2587H49.6888ZM50.2441 23.7646H50.773L50.4998 23.2528L50.2441 23.7646ZM52.6594 23.2616H51.8925V24.0293H52.6506V23.7646L52.9327 23.8264V23.9675C52.9327 24.0822 52.9151 24.1528 52.871 24.1969C52.8269 24.2411 52.7476 24.2587 52.633 24.2587H51.9102C51.7956 24.2587 51.7162 24.2411 51.6722 24.1969C51.6281 24.1528 51.6105 24.0822 51.6105 23.9675V23.3234C51.6105 23.2087 51.6281 23.1381 51.6722 23.094C51.7162 23.0587 51.7956 23.0322 51.9102 23.0322H52.633C52.7564 23.0322 52.8357 23.0499 52.871 23.094C52.9151 23.1381 52.9327 23.2087 52.9327 23.3234V23.4381L52.6506 23.4822V23.2616H52.6594ZM51.9719 24.8764V24.7087C52.0424 24.7264 52.1129 24.744 52.1658 24.7528C52.2275 24.7616 52.2716 24.7705 52.3157 24.7705C52.3597 24.7705 52.395 24.7616 52.4214 24.744C52.4479 24.7264 52.4567 24.6999 52.4567 24.6646C52.4567 24.6293 52.4391 24.594 52.4126 24.5764C52.3862 24.5587 52.3333 24.5499 52.2628 24.5499C52.254 24.5499 52.2451 24.5499 52.2363 24.5499C52.2275 24.5499 52.2187 24.5499 52.2099 24.5499V24.2587H52.3333V24.3911H52.3597C52.4655 24.3911 52.5448 24.4175 52.5977 24.4616C52.6506 24.5058 52.6771 24.5764 52.6771 24.6646C52.6771 24.7528 52.6506 24.8146 52.5889 24.8675C52.5272 24.9116 52.4479 24.9381 52.3421 24.9381C52.298 24.9381 52.2363 24.9293 52.1746 24.9205C52.1041 24.9116 52.0424 24.894 51.9719 24.8764ZM53.6643 24.0205H54.5987V23.2528H53.6643V24.0205ZM53.3735 23.3234C53.3735 23.2087 53.3911 23.1381 53.4352 23.094C53.4792 23.0587 53.5586 23.0322 53.6732 23.0322H54.5723C54.6957 23.0322 54.775 23.0499 54.8103 23.094C54.8544 23.1381 54.872 23.2087 54.872 23.3234V23.9675C54.872 24.0822 54.8544 24.1528 54.8103 24.1969C54.7662 24.2411 54.6869 24.2587 54.5723 24.2587H53.6732C53.5586 24.2587 53.4792 24.2411 53.4352 24.1969C53.3911 24.1528 53.3735 24.0822 53.3735 23.9675V23.3234ZM54.5282 22.4675C54.5106 22.5822 54.4753 22.6616 54.4312 22.7146C54.3872 22.7675 54.3343 22.794 54.2638 22.794C54.2549 22.794 54.2373 22.794 54.2197 22.794C54.2021 22.794 54.1844 22.7852 54.1668 22.7852L54.0522 22.7499C54.0346 22.7411 54.0169 22.7411 54.0081 22.7411C53.9993 22.7411 53.9817 22.7411 53.9729 22.7411C53.9464 22.7411 53.92 22.7499 53.9023 22.7675C53.8847 22.7852 53.8671 22.8028 53.8583 22.8381H53.726C53.7437 22.7322 53.7701 22.6528 53.8142 22.6087C53.8583 22.5558 53.9112 22.5293 53.9817 22.5293C53.9993 22.5293 54.0169 22.5293 54.0346 22.5381C54.0522 22.5381 54.0698 22.5469 54.0963 22.5558L54.2197 22.5911C54.2285 22.5911 54.2373 22.5999 54.2549 22.5999C54.2638 22.5999 54.2814 22.5999 54.2902 22.5999C54.3167 22.5999 54.3431 22.5911 54.3607 22.5734C54.3784 22.5558 54.396 22.5293 54.4048 22.494H54.5282V22.4675ZM55.3656 24.2587V23.0322H56.6085V23.244H55.6477V23.5087H56.203V23.7205H55.6477V24.0205H56.6173V24.2499H55.3656V24.2587ZM58.1071 23.2528H57.3049V23.5087H58.063C58.1864 23.5087 58.2657 23.5264 58.301 23.5705C58.3451 23.6146 58.3627 23.6852 58.3627 23.7999V23.9675C58.3627 24.0822 58.3451 24.1528 58.301 24.1969C58.2569 24.2411 58.1776 24.2587 58.063 24.2587H57.3137C57.1903 24.2587 57.111 24.2411 57.0669 24.1969C57.0228 24.1528 57.0052 24.0822 57.0052 23.9675V23.9322L57.2608 23.8793V24.0205H58.1159V23.7381H57.3578C57.2432 23.7381 57.1551 23.7205 57.1198 23.6764C57.0757 23.6322 57.0581 23.5616 57.0581 23.4469V23.3234C57.0581 23.2087 57.0757 23.1381 57.1198 23.094C57.1639 23.0499 57.2432 23.0322 57.3578 23.0322H58.0454C58.16 23.0322 58.2393 23.0499 58.2834 23.094C58.3274 23.1293 58.3451 23.1999 58.3451 23.2969V23.3234L58.0983 23.3764V23.2528H58.1071Z" fill="#49A0AD"/>
<path fill-rule="evenodd" clip-rule="evenodd" d="M28.9384 20.897C32.1823 20.897 33.6368 19.7499 33.6368 16.9088C33.6368 14.8088 32.8346 13.7235 30.9747 13.4146C32.4468 12.8499 33.1343 11.8793 33.1343 10.2999C33.1343 7.52934 31.5388 6.20581 28.2509 6.20581H15.0197V9.49699H27.3782C28.0746 9.49699 28.5241 9.98228 28.5241 10.7146C28.5241 11.5088 28.1275 11.9323 27.3782 11.9323H15.0197V14.9235H27.7837C28.5241 14.9235 29.0178 15.4264 29.0178 16.2205C29.0178 17.094 28.5682 17.5705 27.7837 17.5705H15.0197V20.9058H28.9384V20.897Z" fill="url(#paint1_linear_3883_36341)"/>
<path fill-rule="evenodd" clip-rule="evenodd" d="M2.05289 16.0177C2.02644 16.6265 2 17.0324 2 17.1912C2 20.4118 3.61313 21.1001 8.16164 21.1001H14.1382C16.2802 21.1001 17.7787 20.9765 18.6867 20.3854C20.0001 19.5383 20.3439 18.4442 20.3439 16.5824C20.3439 13.1501 19.1274 11.9059 15.7601 11.8265L8.39083 11.6412C7.15674 11.5971 6.63666 11.3412 6.63666 10.4236C6.63666 9.39124 7.35948 9.27653 8.75224 9.27653H13.9266C14.9139 9.27653 15.3987 9.753 15.3987 10.7324V10.7942H19.718C19.7356 10.503 19.7621 10.2295 19.7621 9.98241C19.7621 7.15888 18.2988 6.04712 14.9668 6.04712H8.11756C5.75516 6.04712 4.13321 6.14418 3.06661 7.18535C2.32615 7.91771 2.04407 9.01182 2.04407 10.6089C2.04407 13.9795 3.13713 14.8883 6.53969 14.9854L13.5916 15.2059C15.0461 15.2501 15.7513 15.4089 15.7513 16.4854C15.7513 17.3677 15.2841 17.703 14.2175 17.703H8.59357C7.03333 17.703 6.4868 17.4912 6.4868 16.2824V16.0177H2.05289Z" fill="url(#paint2_linear_3883_36341)"/>
<path fill-rule="evenodd" clip-rule="evenodd" d="M48.0757 20.8972L54.0169 10.5031V20.8972H58.3627V6.40894H56.3617H51.8308L46.4978 15.5766L41.2705 6.40894H36.2284L44.9111 20.8972H48.0757Z" fill="url(#paint3_linear_3883_36341)"/>
<path fill-rule="evenodd" clip-rule="evenodd" d="M36.6251 1C37.9032 1 38.9434 2.02353 38.9434 3.28529C38.9434 4.53824 37.9032 5.57059 36.6251 5.57059C35.3469 5.57059 34.3067 4.54706 34.3067 3.28529C34.3067 2.02353 35.3469 1 36.6251 1Z" fill="url(#paint4_radial_3883_36341)"/>
</g>
<defs>
<linearGradient id="paint0_linear_3883_36341" x1="36.4602" y1="19.4725" x2="36.4602" y2="7.87331" gradientUnits="userSpaceOnUse">
<stop stop-color="#EC1C24"/>
<stop offset="1" stop-color="#FFF1EB"/>
</linearGradient>
<linearGradient id="paint1_linear_3883_36341" x1="15.0213" y1="13.552" x2="33.6356" y2="13.552" gradientUnits="userSpaceOnUse">
<stop stop-color="white"/>
<stop offset="0.0145611" stop-color="#FCFEFE"/>
<stop offset="0.5006" stop-color="#9BCED3"/>
<stop offset="0.8394" stop-color="#5FB0B8"/>
<stop offset="1" stop-color="#47A4AD"/>
</linearGradient>
<linearGradient id="paint2_linear_3883_36341" x1="2.04167" y1="13.5681" x2="20.3848" y2="13.5681" gradientUnits="userSpaceOnUse">
<stop stop-color="#E1F3FC"/>
<stop offset="0.4155" stop-color="#9BCFD8"/>
<stop offset="0.812" stop-color="#5FB0B9"/>
<stop offset="1" stop-color="#47A4AD"/>
</linearGradient>
<linearGradient id="paint3_linear_3883_36341" x1="47.2953" y1="20.8739" x2="47.2953" y2="6.38647" gradientUnits="userSpaceOnUse">
<stop stop-color="#E1F3FC"/>
<stop offset="0.1298" stop-color="#C7E5EE"/>
<stop offset="0.423" stop-color="#90C9D2"/>
<stop offset="0.6763" stop-color="#68B5BE"/>
<stop offset="0.877" stop-color="#50A9B2"/>
<stop offset="1" stop-color="#47A4AD"/>
</linearGradient>
<radialGradient id="paint4_radial_3883_36341" cx="0" cy="0" r="1" gradientUnits="userSpaceOnUse" gradientTransform="translate(37.7827 2.14072) scale(3.58001 3.5835)">
<stop stop-color="white"/>
<stop offset="1" stop-color="#EC1C24"/>
</radialGradient>
<clipPath id="clip0_3883_36341">
<rect width="56.4156" height="24" fill="white" transform="translate(2 1)"/>
</clipPath>
</defs>
</svg>
