<svg width="20" height="20" viewBox="0 0 20 20" fill="none" xmlns="http://www.w3.org/2000/svg">
<rect width="20" height="20" rx="4" fill="#E0E3E7"/>
<path d="M10.077 17.6119C8.47833 17.6119 7.12899 17.2892 6.02899 16.6439C4.94366 15.9839 4.17366 15.0672 3.71899 13.8939L6.88699 12.7499C7.09233 13.4539 7.47366 13.9746 8.03099 14.3119C8.60299 14.6492 9.29233 14.8179 10.099 14.8179C10.5243 14.8179 10.935 14.7739 11.331 14.6859C11.727 14.5832 12.057 14.4219 12.321 14.2019C12.585 13.9672 12.717 13.6592 12.717 13.2779C12.717 12.7646 12.4677 12.3686 11.969 12.0899C11.4703 11.7966 10.825 11.5766 10.033 11.4299L8.25099 11.0779C7.45899 10.9166 6.71833 10.6746 6.02899 10.3519C5.35433 10.0146 4.81166 9.57461 4.40099 9.03194C3.99033 8.47461 3.78499 7.77794 3.78499 6.94194C3.78499 6.14994 3.96833 5.46794 4.33499 4.89594C4.70166 4.32394 5.18566 3.85461 5.78699 3.48794C6.40299 3.12127 7.07766 2.84994 7.81099 2.67394C8.54433 2.48327 9.27766 2.38794 10.011 2.38794C10.803 2.38794 11.5657 2.49794 12.299 2.71794C13.047 2.93794 13.7143 3.28261 14.301 3.75194C14.8876 4.20661 15.335 4.81527 15.643 5.57794L12.497 6.72194C12.3063 6.22327 11.9617 5.84194 11.463 5.57794C10.979 5.31394 10.3923 5.18194 9.70299 5.18194C9.02833 5.18194 8.46366 5.30661 8.00899 5.55594C7.56899 5.79061 7.34899 6.13527 7.34899 6.58994C7.34899 6.95661 7.50299 7.27194 7.81099 7.53594C8.11899 7.79994 8.52233 7.98327 9.02099 8.08594L11.001 8.48194C11.6023 8.59927 12.211 8.75327 12.827 8.94394C13.443 9.11994 14.0076 9.36194 14.521 9.66994C15.049 9.96327 15.4743 10.3593 15.797 10.8579C16.1196 11.3566 16.281 11.9873 16.281 12.7499C16.281 13.5272 16.0976 14.2239 15.731 14.8399C15.379 15.4412 14.9023 15.9472 14.301 16.3579C13.7143 16.7686 13.0543 17.0839 12.321 17.3039C11.5877 17.5092 10.8397 17.6119 10.077 17.6119Z" fill="#14181B"/>
</svg>
