<svg width="506" height="524" viewBox="0 0 506 524" fill="none" xmlns="http://www.w3.org/2000/svg">
<path fill-rule="evenodd" clip-rule="evenodd" d="M251.363 518.585C389.231 518.585 501 406.826 501 268.974C501 131.122 389.231 19.3369 251.363 19.3369C113.495 19.3369 1.7229 131.096 1.7229 268.974C1.7229 406.855 113.495 518.585 251.363 518.585ZM251.363 469.64C361.65 469.64 451.074 380.231 451.074 269.953C451.074 159.678 361.65 70.2652 251.363 70.2652C141.076 70.2652 51.6522 159.678 51.6522 269.953C51.6522 380.231 141.076 469.64 251.363 469.64Z" fill="#E57E75"/>
<g filter="url(#filter0_f_4106_25206)">
<path d="M500.856 246.896C497.614 209.62 486.718 186.412 474.987 167.006C420.262 66.5394 334.328 21.5789 257.725 20L248 65.3791C363.082 71.9352 453.851 168.905 500.856 246.896Z" fill="black" fill-opacity="0.3"/>
</g>
<g filter="url(#filter1_f_4106_25206)">
<path d="M373.801 486.336C381.905 481.474 385.147 479.854 396.493 471.75C370.826 481.244 337.64 486.925 299.24 486.336C230.023 485.275 130.67 431.516 130.67 431.516C130.67 431.516 79.093 401.255 59.3514 366.688L33.143 380.89C97.2607 502.955 248.994 533.336 373.801 486.336Z" fill="black" fill-opacity="0.3"/>
</g>
<path d="M374.432 486.171C364.782 491.652 354.658 496.547 344.086 500.825C216.203 552.369 70.7556 490.534 19.1762 362.665C-32.374 234.8 29.4719 89.3662 157.352 37.7928C243.583 3.02596 393.251 8.51717 474.359 157.422C486.091 176.828 498.608 219.206 498.608 235.413C451.602 157.422 372.18 76.586 257.098 70.0299C222.865 69.0338 194.983 76.5023 176.401 85.0033C74.1108 126.256 24.6029 242.602 65.8605 344.906C82.0436 381.274 103.844 409.931 132.767 431.129C177.659 469.108 233.825 491.373 292.646 494.449C320.367 495.902 347.918 493.049 374.406 486.171H374.432Z" fill="#78A5C7"/>
<g filter="url(#filter2_f_4106_25206)">
<path d="M445.118 267.826L466.19 277.55C491.562 285.944 498.333 303.816 490.978 329.585C482.494 359.31 466.576 395.827 456.98 412.111C479.206 353.587 453.222 321.31 453.222 321.31L435.817 303.351L445.118 267.826Z" fill="black" fill-opacity="0.3"/>
</g>
<path d="M438.651 295.323L444.023 272.919L461 276.779L461.502 276.918C487.349 283.716 501.101 291.891 495.366 318.068C485.78 361.827 476.048 379.42 464.916 398.24C484.635 332.91 447.825 306.146 447.825 306.146L438.677 295.323H438.651Z" fill="#78A5C7"/>
<g filter="url(#filter3_f_4106_25206)">
<path d="M444.769 254.872C471.227 255.817 476.997 276.897 485.641 298.62C496.702 326.415 487.501 354.262 477.537 374.792C480.057 369.108 481.161 348.587 474.295 334.275C465.915 316.807 455.195 309.771 435.394 303.482L444.769 254.872Z" fill="black" fill-opacity="0.3"/>
</g>
<g filter="url(#filter4_f_4106_25206)">
<path d="M487.262 186.792C453.603 128.133 323.629 68.8169 248.993 68.4825L257.098 31.206C358.69 31.6612 449.474 102.613 487.262 186.792Z" fill="black" fill-opacity="0.3"/>
</g>
<g filter="url(#filter5_f_4106_25206)">
<path d="M299.24 514.17C281.411 517.412 271.681 518.907 253.856 519.032C165.081 519.655 99.71 473.301 55.6544 407.718L62.5925 352.102C89.5774 401.735 162.756 467.669 215.624 491.571C240.534 502.835 272.354 510.696 299.24 514.17Z" fill="black" fill-opacity="0.3"/>
</g>
<g filter="url(#filter6_ii_4106_25206)">
<path d="M498.608 303.482C498.358 276.688 475.844 255.73 449.158 254.861H421.603H400.532C353.569 253.659 333.947 275.24 312.412 319.374C310.986 322.337 308.914 326.644 306.509 331.763L264.246 132.717L201.117 257.788L148.925 98.0082C178.684 80.3913 213.422 70.2361 250.54 70.2361C325.81 70.2361 445.518 107.573 479.728 169.046C441.239 80.7803 352.996 19.337 250.54 19.337C207.97 19.337 167.915 30.0205 132.868 48.788L121.821 15L120.897 55.6111C48.9559 99.4084 0.152847 173.553 0.176889 269.447C0.21156 407.738 93.6411 503.045 223.059 517.412C249.171 520.31 270.065 519.032 290.313 515.791C263.183 512.268 230.429 505.189 205.257 493.471C151.833 468.607 108.085 426.965 80.6472 374.944C67.865 354.303 58.8302 331.092 54.2691 306.34C68.2831 306.227 82.0443 304.885 91.695 300.944C117.622 290.399 134.742 270.151 146.043 248.223L191.356 386.914L245.114 280.416L289.14 487.85L320.274 419.86C320.552 419.244 348.969 357.185 356.857 341.02C375.428 302.986 381.039 302.95 398.911 303.482H431.329C436.726 303.482 441.125 304.195 447.006 306.201C468.68 313.596 481.44 331.513 481.44 353.661C481.44 360.569 480.052 368.808 477.536 374.792C486.077 356.937 489.511 349.765 493.782 332.654C496.578 321.45 497.763 311.925 498.608 303.482ZM73.0388 255.159C69.7387 256.475 61.5986 257.033 51.2769 256.893C54.8007 202.075 80.4494 153.329 119.386 119.375L118.462 159.484C118.462 160.265 115.47 237.902 73.0096 255.188L73.0388 255.159Z" fill="#346889"/>
</g>
<defs>
<filter id="filter0_f_4106_25206" x="228" y="0" width="292.856" height="266.896" filterUnits="userSpaceOnUse" color-interpolation-filters="sRGB">
<feFlood flood-opacity="0" result="BackgroundImageFix"/>
<feBlend mode="normal" in="SourceGraphic" in2="BackgroundImageFix" result="shape"/>
<feGaussianBlur stdDeviation="10" result="effect1_foregroundBlur_4106_25206"/>
</filter>
<filter id="filter1_f_4106_25206" x="13.1431" y="346.688" width="403.35" height="180.674" filterUnits="userSpaceOnUse" color-interpolation-filters="sRGB">
<feFlood flood-opacity="0" result="BackgroundImageFix"/>
<feBlend mode="normal" in="SourceGraphic" in2="BackgroundImageFix" result="shape"/>
<feGaussianBlur stdDeviation="10" result="effect1_foregroundBlur_4106_25206"/>
</filter>
<filter id="filter2_f_4106_25206" x="425.817" y="257.826" width="77.9586" height="164.284" filterUnits="userSpaceOnUse" color-interpolation-filters="sRGB">
<feFlood flood-opacity="0" result="BackgroundImageFix"/>
<feBlend mode="normal" in="SourceGraphic" in2="BackgroundImageFix" result="shape"/>
<feGaussianBlur stdDeviation="5" result="effect1_foregroundBlur_4106_25206"/>
</filter>
<filter id="filter3_f_4106_25206" x="425.394" y="244.872" width="75.2809" height="139.92" filterUnits="userSpaceOnUse" color-interpolation-filters="sRGB">
<feFlood flood-opacity="0" result="BackgroundImageFix"/>
<feBlend mode="normal" in="SourceGraphic" in2="BackgroundImageFix" result="shape"/>
<feGaussianBlur stdDeviation="5" result="effect1_foregroundBlur_4106_25206"/>
</filter>
<filter id="filter4_f_4106_25206" x="228.993" y="11.2059" width="278.269" height="195.586" filterUnits="userSpaceOnUse" color-interpolation-filters="sRGB">
<feFlood flood-opacity="0" result="BackgroundImageFix"/>
<feBlend mode="normal" in="SourceGraphic" in2="BackgroundImageFix" result="shape"/>
<feGaussianBlur stdDeviation="10" result="effect1_foregroundBlur_4106_25206"/>
</filter>
<filter id="filter5_f_4106_25206" x="45.6544" y="342.102" width="263.586" height="186.937" filterUnits="userSpaceOnUse" color-interpolation-filters="sRGB">
<feFlood flood-opacity="0" result="BackgroundImageFix"/>
<feBlend mode="normal" in="SourceGraphic" in2="BackgroundImageFix" result="shape"/>
<feGaussianBlur stdDeviation="5" result="effect1_foregroundBlur_4106_25206"/>
</filter>
<filter id="filter6_ii_4106_25206" x="-9.82312" y="5" width="518.431" height="524.029" filterUnits="userSpaceOnUse" color-interpolation-filters="sRGB">
<feFlood flood-opacity="0" result="BackgroundImageFix"/>
<feBlend mode="normal" in="SourceGraphic" in2="BackgroundImageFix" result="shape"/>
<feColorMatrix in="SourceAlpha" type="matrix" values="0 0 0 0 0 0 0 0 0 0 0 0 0 0 0 0 0 0 127 0" result="hardAlpha"/>
<feOffset dx="-10" dy="-10"/>
<feGaussianBlur stdDeviation="5"/>
<feComposite in2="hardAlpha" operator="arithmetic" k2="-1" k3="1"/>
<feColorMatrix type="matrix" values="0 0 0 0 0 0 0 0 0 0 0 0 0 0 0 0 0 0 0.25 0"/>
<feBlend mode="normal" in2="shape" result="effect1_innerShadow_4106_25206"/>
<feColorMatrix in="SourceAlpha" type="matrix" values="0 0 0 0 0 0 0 0 0 0 0 0 0 0 0 0 0 0 127 0" result="hardAlpha"/>
<feOffset dx="10" dy="10"/>
<feGaussianBlur stdDeviation="5"/>
<feComposite in2="hardAlpha" operator="arithmetic" k2="-1" k3="1"/>
<feColorMatrix type="matrix" values="0 0 0 0 0 0 0 0 0 0 0 0 0 0 0 0 0 0 0.3 0"/>
<feBlend mode="normal" in2="effect1_innerShadow_4106_25206" result="effect2_innerShadow_4106_25206"/>
</filter>
</defs>
</svg>
