<svg width="193" height="199" viewBox="0 0 193 199" fill="none" xmlns="http://www.w3.org/2000/svg">
<path fill-rule="evenodd" clip-rule="evenodd" d="M93.1337 193.341C143.869 193.341 185 152.209 185 101.473C185 50.7379 143.869 9.59619 93.1337 9.59619C42.3982 9.59619 1.26611 50.7283 1.26611 101.473C1.26611 152.22 42.3982 193.341 93.1337 193.341ZM93.1337 175.327C133.719 175.327 166.627 142.421 166.627 101.834C166.627 61.2478 133.719 28.34 93.1337 28.34C52.5479 28.34 19.6401 61.2478 19.6401 101.834C19.6401 142.421 52.5479 175.327 93.1337 175.327Z" fill="#E57E75"/>
<g filter="url(#filter0_f_4664_37913)">
<path d="M184.716 93.8933C183.523 80.1742 179.513 71.6329 175.196 64.4906C155.058 27.5145 123.434 10.9671 95.2439 10.386L91.665 27.0874C134.015 29.5004 167.418 65.1893 184.716 93.8933Z" fill="black" fill-opacity="0.3"/>
</g>
<g filter="url(#filter1_f_4664_37913)">
<path d="M138.191 181.472C141.173 179.683 142.366 179.086 146.542 176.104C137.096 179.598 124.884 181.689 110.752 181.472C85.2805 181.081 48.7185 161.296 48.7185 161.296C48.7185 161.296 29.7382 150.158 22.4733 137.436L12.8286 142.663C36.4239 187.589 92.2618 198.77 138.191 181.472Z" fill="black" fill-opacity="0.3"/>
</g>
<path d="M138.423 181.411C134.872 183.428 131.146 185.23 127.256 186.804C80.1946 205.775 26.67 183.017 7.68884 135.956C-11.2816 88.8957 11.4777 35.3699 58.5376 16.3887C90.2704 3.59301 145.348 5.61401 175.196 60.4173C179.513 67.5596 184.12 83.1565 184.12 89.1214C166.822 60.4173 137.594 30.6662 95.244 28.2533C82.6463 27.8867 72.3859 30.6354 65.5475 33.7642C27.9048 48.947 9.68586 91.7672 24.8687 129.419C30.824 142.805 38.8466 153.351 49.4902 161.153C66.0103 175.131 86.6796 183.326 108.326 184.458C118.527 184.992 128.666 183.943 138.414 181.411H138.423Z" fill="#78A5C7"/>
<g filter="url(#filter2_f_4664_37913)">
<path d="M164.436 101.051L172.19 104.63C181.527 107.719 184.019 114.297 181.312 123.781C178.19 134.721 172.332 148.161 168.801 154.154C176.98 132.615 167.418 120.735 167.418 120.735L161.013 114.126L164.436 101.051Z" fill="black" fill-opacity="0.3"/>
</g>
<path d="M162.056 111.171L164.032 102.925L170.28 104.346L170.465 104.397C179.976 106.899 185.037 109.908 182.927 119.542C179.399 135.647 175.818 142.122 171.721 149.049C178.978 125.004 165.432 115.154 165.432 115.154L162.065 111.171H162.056Z" fill="#78A5C7"/>
<g filter="url(#filter3_f_4664_37913)">
<path d="M163.727 96.1705C173.464 96.5184 175.587 104.277 178.768 112.272C182.839 122.501 179.452 132.75 175.786 140.306C176.713 138.214 177.12 130.662 174.593 125.394C171.509 118.965 167.564 116.376 160.277 114.061L163.727 96.1705Z" fill="black" fill-opacity="0.3"/>
</g>
<g filter="url(#filter4_f_4664_37913)">
<path d="M179.944 71.2267C167.558 49.6376 119.727 27.807 92.2615 27.6839L95.2441 13.9645C132.63 14.132 166.038 40.2453 179.944 71.2267Z" fill="black" fill-opacity="0.3"/>
</g>
<g filter="url(#filter5_f_4664_37913)">
<path d="M110.752 191.716C104.191 192.909 100.61 193.459 94.051 193.505C61.3819 193.735 37.3253 176.674 21.1128 152.537L23.666 132.068C33.5965 150.335 60.5263 174.601 79.9815 183.399C89.1484 187.544 100.858 190.437 110.752 191.716Z" fill="black" fill-opacity="0.3"/>
</g>
<g filter="url(#filter6_ii_4664_37913)">
<path d="M184.12 114.174C184.028 104.313 175.743 96.5989 165.922 96.2791H155.782H148.028C130.746 95.8366 123.525 103.779 115.6 120.023C115.075 121.113 114.313 122.698 113.428 124.582L97.8749 51.3248L74.6432 97.3564L55.4365 38.5506C66.3879 32.0668 79.1716 28.3293 92.831 28.3293C120.53 28.3293 164.583 42.071 177.172 64.6955C163.008 32.21 130.535 9.59619 92.831 9.59619C77.1651 9.59619 62.4249 13.5282 49.5277 20.4354L45.4621 8L45.1222 22.9466C18.648 39.0659 0.688421 66.3544 0.697269 101.647C0.710028 152.544 35.0921 187.621 82.718 192.909C92.327 193.976 100.016 193.506 107.467 192.313C97.4834 191.016 85.4299 188.41 76.1666 184.098C56.5066 174.947 40.4076 159.621 30.3103 140.475C25.6065 132.878 22.2817 124.335 20.6032 115.226C25.7604 115.184 30.8245 114.69 34.3759 113.239C43.9172 109.359 50.2173 101.906 54.3759 93.836L71.0512 144.88L90.834 105.684L107.036 182.029L118.493 157.006C118.595 156.779 129.053 133.939 131.955 127.989C138.79 113.991 140.855 113.978 147.432 114.174H159.361C161.347 114.174 162.966 114.436 165.13 115.174C173.106 117.896 177.802 124.49 177.802 132.642C177.802 135.184 177.291 138.217 176.365 140.419C179.508 133.847 180.772 131.208 182.344 124.91C183.373 120.787 183.809 117.281 184.12 114.174ZM27.5105 96.3889C26.296 96.8732 23.3005 97.0784 19.5021 97.0271C20.7988 76.8518 30.2376 58.9108 44.5662 46.4146L44.2262 61.1763C44.2262 61.4638 43.1251 90.0376 27.4997 96.3996L27.5105 96.3889Z" fill="#346889"/>
</g>
<defs>
<filter id="filter0_f_4664_37913" x="81.665" y="0.385986" width="113.051" height="103.507" filterUnits="userSpaceOnUse" color-interpolation-filters="sRGB">
<feFlood flood-opacity="0" result="BackgroundImageFix"/>
<feBlend mode="normal" in="SourceGraphic" in2="BackgroundImageFix" result="shape"/>
<feGaussianBlur stdDeviation="5" result="effect1_foregroundBlur_4664_37913"/>
</filter>
<filter id="filter1_f_4664_37913" x="7.82861" y="132.436" width="143.713" height="61.7739" filterUnits="userSpaceOnUse" color-interpolation-filters="sRGB">
<feFlood flood-opacity="0" result="BackgroundImageFix"/>
<feBlend mode="normal" in="SourceGraphic" in2="BackgroundImageFix" result="shape"/>
<feGaussianBlur stdDeviation="2.5" result="effect1_foregroundBlur_4664_37913"/>
</filter>
<filter id="filter2_f_4664_37913" x="156.013" y="96.0509" width="31.3291" height="63.1028" filterUnits="userSpaceOnUse" color-interpolation-filters="sRGB">
<feFlood flood-opacity="0" result="BackgroundImageFix"/>
<feBlend mode="normal" in="SourceGraphic" in2="BackgroundImageFix" result="shape"/>
<feGaussianBlur stdDeviation="2.5" result="effect1_foregroundBlur_4664_37913"/>
</filter>
<filter id="filter3_f_4664_37913" x="156.277" y="92.1705" width="28.3438" height="52.1356" filterUnits="userSpaceOnUse" color-interpolation-filters="sRGB">
<feFlood flood-opacity="0" result="BackgroundImageFix"/>
<feBlend mode="normal" in="SourceGraphic" in2="BackgroundImageFix" result="shape"/>
<feGaussianBlur stdDeviation="2" result="effect1_foregroundBlur_4664_37913"/>
</filter>
<filter id="filter4_f_4664_37913" x="82.2617" y="3.96448" width="107.683" height="77.2622" filterUnits="userSpaceOnUse" color-interpolation-filters="sRGB">
<feFlood flood-opacity="0" result="BackgroundImageFix"/>
<feBlend mode="normal" in="SourceGraphic" in2="BackgroundImageFix" result="shape"/>
<feGaussianBlur stdDeviation="5" result="effect1_foregroundBlur_4664_37913"/>
</filter>
<filter id="filter5_f_4664_37913" x="16.1128" y="127.068" width="99.6396" height="71.4399" filterUnits="userSpaceOnUse" color-interpolation-filters="sRGB">
<feFlood flood-opacity="0" result="BackgroundImageFix"/>
<feBlend mode="normal" in="SourceGraphic" in2="BackgroundImageFix" result="shape"/>
<feGaussianBlur stdDeviation="2.5" result="effect1_foregroundBlur_4664_37913"/>
</filter>
<filter id="filter6_ii_4664_37913" x="-1.30273" y="6" width="187.422" height="189.504" filterUnits="userSpaceOnUse" color-interpolation-filters="sRGB">
<feFlood flood-opacity="0" result="BackgroundImageFix"/>
<feBlend mode="normal" in="SourceGraphic" in2="BackgroundImageFix" result="shape"/>
<feColorMatrix in="SourceAlpha" type="matrix" values="0 0 0 0 0 0 0 0 0 0 0 0 0 0 0 0 0 0 127 0" result="hardAlpha"/>
<feOffset dx="-2" dy="-2"/>
<feGaussianBlur stdDeviation="2.5"/>
<feComposite in2="hardAlpha" operator="arithmetic" k2="-1" k3="1"/>
<feColorMatrix type="matrix" values="0 0 0 0 0 0 0 0 0 0 0 0 0 0 0 0 0 0 0.25 0"/>
<feBlend mode="normal" in2="shape" result="effect1_innerShadow_4664_37913"/>
<feColorMatrix in="SourceAlpha" type="matrix" values="0 0 0 0 0 0 0 0 0 0 0 0 0 0 0 0 0 0 127 0" result="hardAlpha"/>
<feOffset dx="2" dy="2"/>
<feGaussianBlur stdDeviation="2.5"/>
<feComposite in2="hardAlpha" operator="arithmetic" k2="-1" k3="1"/>
<feColorMatrix type="matrix" values="0 0 0 0 0 0 0 0 0 0 0 0 0 0 0 0 0 0 0.3 0"/>
<feBlend mode="normal" in2="effect1_innerShadow_4664_37913" result="effect2_innerShadow_4664_37913"/>
</filter>
</defs>
</svg>
