<svg width="20" height="20" viewBox="0 0 20 20" fill="none" xmlns="http://www.w3.org/2000/svg">
<rect width="20" height="20" rx="4" fill="#FFCD00"/>
<path d="M9.84595 17.6119C8.40862 17.6119 7.16928 17.3039 6.12795 16.6879C5.08662 16.0572 4.27995 15.1699 3.70795 14.0259C3.15062 12.8672 2.87195 11.5106 2.87195 9.95594C2.87195 8.40127 3.18728 7.05927 3.81795 5.92994C4.44862 4.80061 5.32128 3.92794 6.43595 3.31194C7.56528 2.69594 8.87062 2.38794 10.3519 2.38794C11.6426 2.38794 12.8013 2.64461 13.828 3.15794C14.8693 3.67127 15.6833 4.42661 16.27 5.42394L13.278 6.65594C13.0433 6.27461 12.6766 5.94461 12.1779 5.66594C11.6939 5.38727 11.0706 5.24794 10.3079 5.24794C9.61862 5.24794 8.98795 5.42394 8.41595 5.77594C7.84395 6.12794 7.38928 6.65594 7.05195 7.35994C6.71462 8.04927 6.54595 8.91461 6.54595 9.95594C6.54595 11.4959 6.89795 12.6839 7.60195 13.5199C8.30595 14.3412 9.22995 14.7519 10.3739 14.7519C10.9166 14.7519 11.4373 14.6786 11.9359 14.5319C12.4346 14.3706 12.8453 14.1066 13.168 13.7399C13.4906 13.3732 13.652 12.8819 13.652 12.2659V11.8479H10.3519V9.03194H17.128V17.3479H14.84L14.356 15.7199C13.4173 16.9812 11.9139 17.6119 9.84595 17.6119Z" fill="#14181B"/>
</svg>
